<svg width="24" height="25" xmlns="http://www.w3.org/2000/svg">
    <g fill="#15151E" fill-rule="evenodd">
        <path d="m4.097 9.427 1.415 1.415c-.424.441-.8.89-1.103 1.31l-.11.156-.127.191.128.193.11.155a13.233 13.233 0 0 0 1.855 2.04C8.092 16.527 10.105 17.5 12 17.5l.167-.004 1.765 1.765A8.114 8.114 0 0 1 12 19.5c-3.314 0-6.251-2.16-8.07-4.104l-.319-.35a15.09 15.09 0 0 1-.15-.173l-.28-.337-.129-.165-.238-.317-.21-.3a8.882 8.882 0 0 1-.094-.142l-.165-.268C2.12 12.961 2 12.664 2 12.5c0-.218.213-.674.604-1.254l.21-.3.238-.317.13-.165.28-.337c.194-.228.407-.463.635-.7zM12 5.5c3.615 0 6.782 2.57 8.539 4.627l.28.337.129.165.238.317.21.3c.39.58.604 1.036.604 1.254 0 .164-.12.461-.345.844l-.165.268c-.03.047-.061.094-.094.142l-.21.3-.238.317-.13.165-.28.337c-1.066 1.248-2.652 2.686-4.542 3.623l-1.511-1.51c1.106-.445 2.208-1.164 3.25-2.1a13.233 13.233 0 0 0 1.856-2.039l.11-.155.126-.193-.127-.19-.11-.156a13.233 13.233 0 0 0-1.855-2.04C15.908 8.473 13.895 7.5 12 7.5c-1.645 0-3.378.733-5.002 1.998L5.575 8.076C7.313 6.677 9.554 5.5 12 5.5z" fill-rule="nonzero"/>
        <g fill-rule="nonzero">
            <path d="m19.037 18.715-1.415 1.414L3.48 5.987l1.414-1.414z"/>
            <path d="m20.485 20.157-.018.018a2 2 0 0 1-2.81-.018l.018.017-.036-.035a2 2 0 0 1-.084-2.701l.102-.11 2.828 2.829z"/>
        </g>
        <path d="M12 10.5c.552 0 1.052.224 1.414.586a1.994 1.994 0 0 1 .324 2.404l-.012.019-.127-.084a7.891 7.891 0 0 1-1.24-1.067l-.173-.183c-.483-.52-.929-1.064-1.198-1.495l.087.133.085-.064c.21-.143.443-.22.69-.242z" stroke="#15151E" stroke-width="2"/>
    </g>
</svg>
